<svg width="16" height="16" viewBox="0 0 14 14" fill="none" xmlns="http://www.w3.org/2000/svg">
<rect x="0.642057" y="0.425107" width="12.7677" height="12.7677" stroke="white" stroke-width="0.41186"/>
<g clip-path="url(#clip0_32_161)">
<path d="M6.9753 5.14372C6.04963 5.14372 5.30299 5.88651 5.30299 6.80741C5.30299 7.7283 6.04963 8.47109 6.9753 8.47109C7.90096 8.47109 8.6476 7.7283 8.6476 6.80741C8.6476 5.88651 7.90096 5.14372 6.9753 5.14372ZM6.9753 7.88902C6.37711 7.88902 5.88808 7.40396 5.88808 6.80741C5.88808 6.21085 6.37565 5.72579 6.9753 5.72579C7.57494 5.72579 8.06251 6.21085 8.06251 6.80741C8.06251 7.40396 7.57348 7.88902 6.9753 7.88902ZM9.10606 5.07567C9.10606 5.29141 8.93141 5.46372 8.71601 5.46372C8.49914 5.46372 8.32595 5.28996 8.32595 5.07567C8.32595 4.86137 8.5006 4.68762 8.71601 4.68762C8.93141 4.68762 9.10606 4.86137 9.10606 5.07567ZM10.2137 5.46951C10.1889 4.9497 10.0696 4.48925 9.68679 4.10989C9.30546 3.73053 8.84263 3.6118 8.32013 3.58573C7.78161 3.55533 6.16752 3.55533 5.62901 3.58573C5.10796 3.61035 4.64513 3.72908 4.26235 4.10844C3.87957 4.4878 3.76168 4.94825 3.73548 5.46806C3.70491 6.0038 3.70491 7.60957 3.73548 8.14531C3.76022 8.66512 3.87957 9.12556 4.26235 9.50493C4.64513 9.88429 5.10651 10.003 5.62901 10.0291C6.16752 10.0595 7.78161 10.0595 8.32013 10.0291C8.84263 10.0045 9.30546 9.88574 9.68679 9.50493C10.0681 9.12556 10.1875 8.66512 10.2137 8.14531C10.2442 7.60957 10.2442 6.00525 10.2137 5.46951ZM9.51795 8.72014C9.40443 9.00394 9.18466 9.22258 8.89794 9.33696C8.46858 9.50637 7.44977 9.46728 6.9753 9.46728C6.50082 9.46728 5.48055 9.50493 5.05265 9.33696C4.76739 9.22402 4.54762 9.00538 4.43264 8.72014C4.26235 8.293 4.30165 7.27944 4.30165 6.80741C4.30165 6.33538 4.2638 5.32037 4.43264 4.89467C4.54616 4.61088 4.76593 4.39224 5.05265 4.27785C5.48201 4.10844 6.50082 4.14753 6.9753 4.14753C7.44977 4.14753 8.47004 4.10989 8.89794 4.27785C9.1832 4.39079 9.40297 4.60943 9.51795 4.89467C9.68824 5.32182 9.64894 6.33538 9.64894 6.80741C9.64894 7.27944 9.68824 8.29444 9.51795 8.72014Z" fill="white"/>
</g>
<defs>
<clipPath id="clip0_32_161">
<rect width="6.58976" height="7.41348" fill="white" transform="translate(3.73105 3.10193)"/>
</clipPath>
</defs>
</svg>
