<svg width="16" height="16" viewBox="0 0 14 14" fill="none" xmlns="http://www.w3.org/2000/svg">
<rect x="0.642057" y="0.425107" width="12.7677" height="12.7677" stroke="white" stroke-width="0.41186"/>
<g clip-path="url(#clip0_1_159)">
<path d="M6.97528 5.14372C6.04962 5.14372 5.30298 5.88651 5.30298 6.80741C5.30298 7.7283 6.04962 8.47109 6.97528 8.47109C7.90094 8.47109 8.64758 7.7283 8.64758 6.80741C8.64758 5.88651 7.90094 5.14372 6.97528 5.14372ZM6.97528 7.88902C6.37709 7.88902 5.88806 7.40396 5.88806 6.80741C5.88806 6.21085 6.37564 5.72579 6.97528 5.72579C7.57492 5.72579 8.0625 6.21085 8.0625 6.80741C8.0625 7.40396 7.57347 7.88902 6.97528 7.88902ZM9.10605 5.07567C9.10605 5.29141 8.9314 5.46372 8.71599 5.46372C8.49913 5.46372 8.32593 5.28996 8.32593 5.07567C8.32593 4.86137 8.50058 4.68762 8.71599 4.68762C8.9314 4.68762 9.10605 4.86137 9.10605 5.07567ZM10.2136 5.46951C10.1889 4.9497 10.0696 4.48925 9.68677 4.10989C9.30544 3.73053 8.84261 3.6118 8.32011 3.58573C7.7816 3.55533 6.16751 3.55533 5.62899 3.58573C5.10795 3.61035 4.64512 3.72908 4.26233 4.10844C3.87955 4.4878 3.76166 4.94825 3.73546 5.46806C3.7049 6.0038 3.7049 7.60957 3.73546 8.14531C3.76021 8.66512 3.87955 9.12556 4.26233 9.50493C4.64512 9.88429 5.10649 10.003 5.62899 10.0291C6.16751 10.0595 7.7816 10.0595 8.32011 10.0291C8.84261 10.0045 9.30544 9.88574 9.68677 9.50493C10.0681 9.12556 10.1874 8.66512 10.2136 8.14531C10.2442 7.60957 10.2442 6.00525 10.2136 5.46951ZM9.51794 8.72014C9.40441 9.00394 9.18464 9.22258 8.89792 9.33696C8.46856 9.50637 7.44975 9.46728 6.97528 9.46728C6.50081 9.46728 5.48054 9.50493 5.05264 9.33696C4.76737 9.22402 4.5476 9.00538 4.43262 8.72014C4.26233 8.293 4.30163 7.27944 4.30163 6.80741C4.30163 6.33538 4.26379 5.32037 4.43262 4.89467C4.54614 4.61088 4.76592 4.39224 5.05264 4.27785C5.48199 4.10844 6.50081 4.14753 6.97528 4.14753C7.44975 4.14753 8.47002 4.10989 8.89792 4.27785C9.18319 4.39079 9.40296 4.60943 9.51794 4.89467C9.68823 5.32182 9.64893 6.33538 9.64893 6.80741C9.64893 7.27944 9.68823 8.29444 9.51794 8.72014Z" fill="white"/>
</g>
<defs>
<clipPath id="clip0_1_159">
<rect width="6.58976" height="7.41348" fill="white" transform="translate(3.73105 3.10193)"/>
</clipPath>
</defs>
</svg>
