<svg width="16" height="16" viewBox="0 0 14 14" fill="none" xmlns="http://www.w3.org/2000/svg">
<rect x="0.872815" y="0.425107" width="12.7677" height="12.7677" stroke="white" stroke-width="0.41186"/>
<g clip-path="url(#clip0_1_154)">
<path d="M5.42491 9.69157V5.52335H4.02698V9.69157H5.42491ZM4.72613 4.95391C5.21361 4.95391 5.51705 4.63384 5.51705 4.23386C5.50796 3.82486 5.21363 3.51367 4.73538 3.51367C4.2572 3.51367 3.9445 3.82486 3.9445 4.23386C3.9445 4.63386 4.24786 4.95391 4.717 4.95391H4.72608H4.72613ZM6.19866 9.69157H7.5966V7.36384C7.5966 7.23926 7.60568 7.11481 7.64259 7.02576C7.74365 6.77686 7.97367 6.51906 8.35984 6.51906C8.86569 6.51906 9.06806 6.9013 9.06806 7.46164V9.69154H10.4659V7.30153C10.4659 6.02121 9.77624 5.4255 8.85648 5.4255C8.10236 5.4255 7.77124 5.84326 7.58729 6.12779H7.59663V5.52327H6.19869C6.21704 5.91439 6.19869 9.69149 6.19869 9.69149L6.19866 9.69157Z" fill="white"/>
</g>
<defs>
<clipPath id="clip0_1_154">
<rect width="6.58976" height="6.1779" fill="white" transform="translate(3.96176 3.51392)"/>
</clipPath>
</defs>
</svg>
