<svg width="16" height="16" viewBox="0 0 15 14" fill="none" xmlns="http://www.w3.org/2000/svg">
<rect x="1.10353" y="0.425107" width="12.7677" height="12.7677" stroke="white" stroke-width="0.41186"/>
<g clip-path="url(#clip0_1_149)">
<path d="M11.1032 4.62812C10.8285 4.74529 10.5371 4.82219 10.2388 4.85628C10.5495 4.67696 10.7881 4.39299 10.9005 4.05464C10.6051 4.22342 10.2819 4.34234 9.94486 4.40626C9.67032 4.12466 9.27922 3.94867 8.84635 3.94867C8.01521 3.94867 7.34135 4.59744 7.34135 5.39763C7.34135 5.51121 7.35467 5.62178 7.38032 5.72786C6.12957 5.66742 5.02066 5.09056 4.27837 4.21391C4.14886 4.42791 4.07464 4.67685 4.07464 4.94236C4.07464 5.44508 4.34035 5.88857 4.74415 6.14843C4.50516 6.14122 4.27143 6.07907 4.06247 5.96717C4.06238 5.97324 4.06238 5.97931 4.06238 5.9854C4.06238 6.68745 4.58113 7.27311 5.26958 7.40622C5.04796 7.46425 4.8155 7.47274 4.58996 7.43105C4.78145 8.00672 5.33726 8.42562 5.99578 8.43735C5.48073 8.82596 4.8318 9.05762 4.12674 9.05762C4.00524 9.05762 3.88547 9.05075 3.76773 9.03737C4.43374 9.4485 5.22479 9.68838 6.07467 9.68838C8.84285 9.68838 10.3566 7.48043 10.3566 5.56567C10.3566 5.50282 10.3551 5.44033 10.3522 5.3782C10.6468 5.17313 10.9011 4.91913 11.1032 4.62812Z" fill="white"/>
</g>
<defs>
<clipPath id="clip0_1_149">
<rect width="7.41348" height="5.76604" fill="white" transform="translate(3.78069 3.9259)"/>
</clipPath>
</defs>
</svg>
