<svg width="16" height="16" viewBox="0 0 15 14" fill="none" xmlns="http://www.w3.org/2000/svg">
<rect x="1.10351" y="0.425107" width="12.7677" height="12.7677" stroke="white" stroke-width="0.41186"/>
<g clip-path="url(#clip0_32_151)">
<path d="M11.1031 4.62812C10.8285 4.74529 10.5371 4.82219 10.2388 4.85628C10.5495 4.67696 10.7881 4.39299 10.9005 4.05464C10.6051 4.22342 10.2819 4.34234 9.94483 4.40626C9.67029 4.12466 9.27919 3.94867 8.84632 3.94867C8.01518 3.94867 7.34132 4.59744 7.34132 5.39763C7.34132 5.51121 7.35464 5.62178 7.38029 5.72786C6.12954 5.66742 5.02063 5.09056 4.27834 4.21391C4.14883 4.42791 4.07461 4.67685 4.07461 4.94236C4.07461 5.44508 4.34032 5.88857 4.74412 6.14843C4.50513 6.14122 4.2714 6.07907 4.06244 5.96717C4.06235 5.97324 4.06235 5.97931 4.06235 5.9854C4.06235 6.68745 4.5811 7.27311 5.26955 7.40622C5.04793 7.46425 4.81547 7.47274 4.58993 7.43105C4.78142 8.00672 5.33723 8.42562 5.99575 8.43735C5.4807 8.82596 4.83177 9.05762 4.12671 9.05762C4.00521 9.05762 3.88544 9.05075 3.7677 9.03737C4.43371 9.4485 5.22476 9.68838 6.07464 9.68838C8.84282 9.68838 10.3565 7.48043 10.3565 5.56567C10.3565 5.50282 10.3551 5.44033 10.3522 5.3782C10.6468 5.17313 10.9011 4.91913 11.1031 4.62812Z" fill="white"/>
</g>
<defs>
<clipPath id="clip0_32_151">
<rect width="7.41348" height="5.76604" fill="white" transform="translate(3.78064 3.9259)"/>
</clipPath>
</defs>
</svg>
