<svg width="10" height="9" viewBox="0 0 10 9" fill="none" xmlns="http://www.w3.org/2000/svg">
<path d="M4.64412 0.422591C4.70577 0.232866 4.97418 0.232866 5.03583 0.422592L5.90336 3.09259C5.93093 3.17743 6.01 3.23488 6.09921 3.23488H8.90661C9.1061 3.23488 9.18904 3.49015 9.02765 3.60741L6.75642 5.25756C6.68424 5.31 6.65404 5.40295 6.68161 5.4878L7.54915 8.15779C7.61079 8.34752 7.39364 8.50528 7.23225 8.38803L4.96102 6.73788C4.88884 6.68544 4.79111 6.68544 4.71893 6.73788L2.4477 8.38803C2.28631 8.50528 2.06916 8.34752 2.13081 8.15779L2.99834 5.4878C3.02591 5.40295 2.99571 5.31 2.92353 5.25756L0.652298 3.60741C0.490908 3.49015 0.573851 3.23488 0.773341 3.23488H3.58074C3.66995 3.23488 3.74902 3.17743 3.77659 3.09259L4.64412 0.422591Z" fill="#F1CC4A"/>
</svg>
