<svg width="14" height="14" viewBox="0 0 14 14" fill="none" xmlns="http://www.w3.org/2000/svg">
<path d="M7.11403 4.66637L7.43803 5.42419C7.45999 5.49009 7.5204 5.52853 7.58081 5.53402L8.40453 5.6109C8.58025 5.62737 8.64615 5.84154 8.51985 5.95686L7.89931 6.50052C7.84989 6.54445 7.82792 6.61035 7.8444 6.67075L8.02561 7.478C8.06405 7.64823 7.88284 7.78003 7.72908 7.69216L7.02068 7.26932C6.96576 7.23637 6.89437 7.23637 6.83946 7.26932L6.13106 7.69216C5.98279 7.78003 5.79608 7.64823 5.83452 7.478L6.01574 6.67075C6.03221 6.61035 6.01025 6.54445 5.96082 6.50052L5.34029 5.95686C5.20849 5.84154 5.27988 5.62737 5.45561 5.6109L6.27933 5.53402C6.34523 5.52853 6.40014 5.49009 6.4276 5.42968L6.7516 4.67186C6.81749 4.50712 7.04264 4.50712 7.11403 4.66637Z" stroke="#F0C932" stroke-width="0.549146" stroke-miterlimit="10" stroke-linecap="round" stroke-linejoin="round"/>
<path d="M10.6655 6.27243C10.6797 4.21009 9.01937 2.52673 6.95703 2.51254C4.89469 2.49834 3.21132 4.1587 3.19713 6.22103C3.18294 8.28337 4.84329 9.96674 6.90563 9.98093C8.96797 9.99512 10.6513 8.33477 10.6655 6.27243Z" stroke="#F0C932" stroke-width="0.549146" stroke-miterlimit="10" stroke-linecap="round" stroke-linejoin="round"/>
<path d="M6.42208 9.94366L5.49402 12.2775L4.31885 10.9321L2.5451 11.0969L3.72028 8.15344" stroke="#F0C932" stroke-width="0.549146" stroke-miterlimit="10" stroke-linecap="round" stroke-linejoin="round"/>
<path d="M7.43254 9.94366L8.36609 12.2775L9.53577 10.9321L11.315 11.0969L10.1343 8.15344" stroke="#F0C932" stroke-width="0.549146" stroke-miterlimit="10" stroke-linecap="round" stroke-linejoin="round"/>
</svg>
